<svg width="960" height="540" xmlns="http://www.w3.org/2000/svg"><path fill="#001220" d="M0 0h960v540H0z"/><path d="m0 353 22.8-4.3c22.9-4.4 68.5-13 114.2-15.7 45.7-2.7 91.3.7 137-1.3s91.3-9.4 137.2 0C457 341 503 367 548.8 367.8c45.9.9 91.5-23.5 137.2-27.6 45.7-4.2 91.3 11.8 137 20.3s91.3 9.5 114.2 10l22.8.5v170H0Z" fill="#212738"/><path d="m0 357 22.8 5c22.9 5 68.5 15 114.2 19.7 45.7 4.6 91.3 4 137 6.3s91.3 7.7 137.2 6.2c45.8-1.5 91.8-9.9 137.6-6.2 45.9 3.7 91.5 19.3 137.2 18.2 45.7-1.2 91.3-19.2 137-26.9 45.7-7.6 91.3-5 114.2-3.6L960 377v164H0Z" fill="#393157"/><path d="m0 393 22.8 2.2c22.9 2.1 68.5 6.5 114.2 9.1 45.7 2.7 91.3 3.7 137 6.2s91.3 6.5 137.2 8.5c45.8 2 91.8 2 137.6 6 45.9 4 91.5 12 137.2 17.8 45.7 5.9 91.3 9.5 137 10.2 45.7.7 91.3-1.7 114.2-2.8L960 449v92H0Z" fill="#63356d"/><path d="m0 463 22.8-3.8c22.9-3.9 68.5-11.5 114.2-13s91.3 3.1 137 6.3c45.7 3.2 91.3 4.8 137.2 9.3 45.8 4.5 91.8 11.9 137.6 13.4 45.9 1.5 91.5-2.9 137.2-7.4 45.7-4.5 91.3-9.1 137-14.6s91.3-11.9 114.2-15L960 435v106H0Z" fill="#952f73"/><path d="m0 499 22.8-1.8c22.9-1.9 68.5-5.5 114.2-8s91.3-3.9 137-6c45.7-2.2 91.3-5.2 137.2-1 45.8 4.1 91.8 15.5 137.6 21.5 45.9 6 91.5 6.6 137.2 7.8 45.7 1.2 91.3 2.8 137-1.5s91.3-14.7 114.2-19.8L960 485v56H0Z" fill="#c62368"/></svg>