<svg width="960" height="540" xmlns="http://www.w3.org/2000/svg"><path fill="#001220" d="M0 0h960v540H0z"/><path d="m0 307 16 7.8c16 7.9 48 23.5 80 28.9 32 5.3 64 .3 96-1 32-1.4 64 1 96 2.8 32 1.8 64 3.2 96 4.5 32 1.3 64 2.7 96-.7 32-3.3 64-11.3 96-16.5 32-5.1 64-7.5 96-6.1 32 1.3 64 6.3 96 14.8s64 20.5 96 16.8c32-3.6 64-23 80-32.6l16-9.7v225H0Z" fill="#1f222e"/><path d="m0 367 16 5c16 5 48 15 80 20.8 32 5.9 64 7.5 96 7.9 32 .3 64-.7 96-4 32-3.4 64-9 96-7.2 32 1.8 64 11.2 96 5.3 32-5.8 64-26.8 96-26.6 32 .1 64 21.5 96 27.3 32 5.8 64-3.8 96-12.5s64-16.3 96-23.2c32-6.8 64-12.8 80-15.8l16-3v200H0Z" fill="#332c47"/><path d="m0 393 16-.7c16-.6 48-2 80 0s64 7.4 96 17.4c32 10 64 24.6 96 23.5 32-1.2 64-18.2 96-19.9 32-1.6 64 12 96 11.9 32-.2 64-14.2 96-20.4 32-6.1 64-4.5 96-3.6 32 .8 64 .8 96-.5 32-1.4 64-4 96 1s64 17.6 80 24l16 6.3v109H0Z" fill="#523259"/><path d="m0 462 16-.2c16-.1 48-.5 80-.3s64 .8 96-1.5 64-7.7 96-6.7 64 8.4 96 13.4 64 7.6 96 1.6 64-20.6 96-23.6 64 5.6 96 5.3c32-.3 64-9.7 96-5.3 32 4.3 64 22.3 96 21.5 32-.9 64-20.5 80-30.4l16-9.8v115H0Z" fill="#783362"/><path d="m0 477 16 2.2c16 2.1 48 6.5 80 13.3 32 6.8 64 16.2 96 17.8 32 1.7 64-4.3 96-8 32-3.6 64-5 96-6.3 32-1.3 64-2.7 96-5.8 32-3.2 64-8.2 96-6.5 32 1.6 64 10 96 16.3 32 6.3 64 10.7 96 8.5 32-2.2 64-10.8 96-12.8s64 2.6 80 5l16 2.3v38H0Z" fill="#9f325f"/></svg>